<svg width="51" height="59" viewBox="0 0 51 59" fill="none" xmlns="http://www.w3.org/2000/svg">
<circle cx="24.5375" cy="24.5375" r="24.5375" fill="#C4C4C4" fill-opacity="0.28"/>
<path d="M45.9212 8.75928H22.5966C20.1358 8.75928 18.0178 10.5297 18.0178 12.8376V54.4206C18.0178 56.7294 20.1357 58.4998 22.5966 58.4998H45.9202C48.3819 58.4998 50.4999 56.7295 50.4999 54.4215V12.8376C50.4999 10.5297 48.382 8.75928 45.9212 8.75928ZM20.8697 16.258H47.6481V46.127H20.8697V16.258ZM22.5966 11.384H45.9202C46.9365 11.384 47.6481 12.0962 47.6481 12.8376V13.6333H20.8697V12.8376C20.8697 12.0961 21.5815 11.384 22.5966 11.384ZM45.9212 55.8751H22.5966C21.5815 55.8751 20.8697 55.163 20.8697 54.4215V48.7517H47.6481V54.4215C47.6481 55.163 46.9363 55.8751 45.9212 55.8751Z" fill="#FDCF30" stroke="#FDCF30"/>
<path d="M34.259 48.564C32.0037 48.564 30.0552 50.1857 30.0552 52.3133C30.0552 54.441 32.0037 56.0627 34.259 56.0627C36.5142 56.0627 38.4627 54.441 38.4627 52.3133C38.4627 50.1857 36.5142 48.564 34.259 48.564ZM34.259 53.438C33.4503 53.438 32.9071 52.8737 32.9071 52.3133C32.9071 51.7529 33.4503 51.1886 34.259 51.1886C35.0676 51.1886 35.6108 51.7529 35.6108 52.3133C35.6108 52.8737 35.0676 53.438 34.259 53.438Z" fill="#FDCF30" stroke="#FDCF30"/>
<path d="M30.5553 13.821H34.2591C34.9838 13.821 35.6851 13.2935 35.6851 12.5086C35.6851 11.7238 34.9838 11.1963 34.2591 11.1963H30.5553C29.8306 11.1963 29.1294 11.7238 29.1294 12.5086C29.1294 13.2935 29.8306 13.821 30.5553 13.821Z" fill="#FDCF30" stroke="#FDCF30"/>
<path d="M37.037 13.821H37.963C38.6877 13.821 39.3889 13.2935 39.3889 12.5086C39.3889 11.7238 38.6877 11.1963 37.963 11.1963H37.037C36.3123 11.1963 35.6111 11.7238 35.6111 12.5086C35.6111 13.2935 36.3123 13.821 37.037 13.821Z" fill="#FDCF30" stroke="#FDCF30"/>
</svg>
