<svg width="51" height="56" viewBox="0 0 51 56" fill="none" xmlns="http://www.w3.org/2000/svg">
<circle cx="21.6619" cy="21.6619" r="21.6619" fill="#C4C4C4" fill-opacity="0.28"/>
<path d="M42.5064 28.3828H25.4766C24.8248 28.3828 24.2954 28.9108 24.2954 29.564C24.2954 30.2172 24.8248 30.7452 25.4766 30.7452H42.5064C43.1583 30.7452 43.6876 30.2172 43.6876 29.564C43.6876 28.9108 43.1583 28.3828 42.5064 28.3828Z" fill="#FDCF30" stroke="#FDCF30"/>
<path d="M25.4766 25.2955H32.2885C32.9404 25.2955 33.4697 24.7675 33.4697 24.1143C33.4697 23.4611 32.9404 22.9331 32.2885 22.9331H25.4766C24.8248 22.9331 24.2954 23.4611 24.2954 24.1143C24.2954 24.7675 24.8248 25.2955 25.4766 25.2955Z" fill="#FDCF30" stroke="#FDCF30"/>
<path d="M42.5064 33.832H25.4766C24.8248 33.832 24.2954 34.3601 24.2954 35.0132C24.2954 35.6664 24.8248 36.1944 25.4766 36.1944H42.5064C43.1583 36.1944 43.6876 35.6664 43.6876 35.0132C43.6876 34.3601 43.1583 33.832 42.5064 33.832Z" fill="#FDCF30" stroke="#FDCF30"/>
<path d="M42.5064 39.2817H25.4766C24.8248 39.2817 24.2954 39.8098 24.2954 40.4629C24.2954 41.1161 24.8248 41.6441 25.4766 41.6441H42.5064C43.1583 41.6441 43.6876 41.1161 43.6876 40.4629C43.6876 39.8098 43.1583 39.2817 42.5064 39.2817Z" fill="#FDCF30" stroke="#FDCF30"/>
<path d="M42.5064 44.7314H25.4766C24.8248 44.7314 24.2954 45.2595 24.2954 45.9126C24.2954 46.5658 24.8248 47.0938 25.4766 47.0938H42.5064C43.1583 47.0938 43.6876 46.5658 43.6876 45.9126C43.6876 45.2595 43.1583 44.7314 42.5064 44.7314Z" fill="#FDCF30" stroke="#FDCF30"/>
<path d="M40.4176 13.5429L40.2712 13.3965H40.0641H17.9839H17.4839V13.8965V54.768V55.268H17.9839H49.9999H50.4999V54.768V23.8324V23.6253L50.3535 23.4788L40.4176 13.5429ZM39.1009 25.2956H48.1376V52.9057H19.8463V15.7589H38.6009V24.7956V25.2956H39.1009ZM40.9632 22.9332V17.4292L46.4672 22.9332H40.9632Z" fill="#FDCF30" stroke="#FDCF30"/>
</svg>
