<svg width="52" height="59" viewBox="0 0 52 59" fill="none" xmlns="http://www.w3.org/2000/svg">
<circle cx="22.9066" cy="22.9066" r="22.9066" fill="#C4C4C4" fill-opacity="0.28"/>
<path d="M51 28.0253H42.856V18.672C42.856 12.8318 37.7496 8.14404 31.5509 8.14404C25.3523 8.14404 20.2459 12.8318 20.2459 18.672V28.0253H12.9663H12.4663V28.5253V50.9997V57.9149V58.4149H12.9663H51H51.5V57.9149V50.9997V28.5253V28.0253H51ZM22.9747 18.672C22.9747 14.4131 26.7791 10.8728 31.5509 10.8728C36.3227 10.8728 40.1272 14.4131 40.1272 18.672V28.0253H22.9747V18.672ZM48.7712 55.6861H15.1951V53.2285H48.7712V55.6861ZM15.1951 50.4997V30.7541H20.7459H42.356H48.7712V50.4997H15.1951Z" fill="#FDCF30" stroke="#FDCF30"/>
<path d="M31.983 34.9404C29.8 34.9404 28.0254 36.715 28.0254 38.898V44.0844C28.0254 46.2675 29.8 48.0421 31.983 48.0421C34.166 48.0421 35.9406 46.2675 35.9406 44.0844V38.898C35.9406 36.715 34.166 34.9404 31.983 34.9404ZM33.2118 44.0844C33.2118 44.7617 32.6603 45.3132 31.983 45.3132C31.3057 45.3132 30.7542 44.7617 30.7542 44.0844V38.898C30.7542 38.2207 31.3057 37.6692 31.983 37.6692C32.6603 37.6692 33.2118 38.2207 33.2118 38.898V44.0844Z" fill="#FDCF30" stroke="#FDCF30"/>
</svg>
