<svg width="21" height="19" viewBox="0 0 21 19" fill="none" xmlns="http://www.w3.org/2000/svg">
<path d="M19.25 2.375H1.75001C0.784834 2.375 0 3.08509 0 3.95835V15.0417C0 15.9149 0.784834 16.625 1.75001 16.625H19.25C20.2152 16.625 21 15.9149 21 15.0417V3.95835C21 3.08509 20.2152 2.375 19.25 2.375ZM1.75001 3.16665H19.25C19.3145 3.16665 19.3713 3.18792 19.4318 3.19994C17.9167 4.4545 12.893 8.61268 11.1349 10.0458C10.9974 10.1579 10.7756 10.2917 10.5 10.2917C10.2245 10.2917 10.0027 10.1579 9.86471 10.0454C8.10682 8.61253 3.08278 4.45413 1.56795 3.20002C1.62857 3.18799 1.6855 3.16665 1.75001 3.16665ZM0.874986 15.0417V3.95835C0.874986 3.88079 0.900826 3.81043 0.923959 3.73955C2.08355 4.69979 5.58891 7.60115 7.86183 9.4712C5.59629 11.2319 2.09003 14.2396 0.921211 15.248C0.90058 15.1807 0.874986 15.1148 0.874986 15.0417ZM19.25 15.8333H1.75001C1.68012 15.8333 1.61798 15.8113 1.55273 15.7972C2.76052 14.7555 6.28909 11.7305 8.5148 10.0078C8.80495 10.2459 9.06999 10.4631 9.27892 10.6334C9.63953 10.928 10.0616 11.0833 10.5 11.0833C10.9384 11.0833 11.3605 10.9279 11.7206 10.6338C11.9296 10.4634 12.1949 10.246 12.4852 10.0078C14.711 11.7303 18.2391 14.7551 19.4473 15.7972C19.382 15.8113 19.32 15.8333 19.25 15.8333ZM20.125 15.0417C20.125 15.1148 20.0994 15.1807 20.0788 15.248C18.9096 14.2391 15.4037 11.2317 13.1382 9.47124C15.4112 7.60119 18.916 4.70009 20.076 3.73947C20.0992 3.81035 20.125 3.88075 20.125 3.95831V15.0417Z" fill="#606060"/>
</svg>
