<svg width="51" height="56" viewBox="0 0 51 56" fill="none" xmlns="http://www.w3.org/2000/svg">
<circle cx="21.7216" cy="21.7216" r="21.7216" fill="#C4C4C4" fill-opacity="0.28"/>
<path d="M22.889 49.2219L22.5354 48.8684L22.889 49.2219C23.3647 48.7462 23.3647 47.9764 22.889 47.5007L19.4463 44.058L21.3112 42.1931L26.1883 47.0703C26.4255 47.3074 26.7378 47.4269 27.0489 47.4269C27.36 47.4269 27.6724 47.3074 27.9095 47.0703C28.3852 46.5946 28.3852 45.8247 27.9095 45.349L23.0324 40.4718L29.8548 33.6494C32.0359 35.9443 35.1118 37.3857 38.5244 37.3857C45.1279 37.3857 50.5 32.0136 50.5 25.4101C50.5 18.8067 45.1279 13.4346 38.5244 13.4346C31.921 13.4346 26.5489 18.8067 26.5489 25.4101C26.5489 27.7217 27.2094 29.8816 28.3479 31.7138L9.69222 50.3696L10.0453 50.7227L9.69222 50.3696C9.21653 50.8453 9.21652 51.6151 9.69222 52.0908C9.92939 52.328 10.2417 52.4474 10.5528 52.4474C10.864 52.4474 11.1763 52.328 11.4135 52.0908L14.139 49.3653L19.0161 54.2425C19.2533 54.4797 19.5656 54.5991 19.8767 54.5991C20.1878 54.5991 20.5002 54.4797 20.7373 54.2425L20.3838 53.8889L20.7373 54.2425C21.213 53.7668 21.213 52.9969 20.7373 52.5212L15.8602 47.6441L17.7251 45.7792L21.1677 49.2219C21.4049 49.4591 21.7173 49.5785 22.0284 49.5785C22.3395 49.5785 22.6518 49.4591 22.889 49.2219ZM38.5244 34.9513C33.2636 34.9513 28.9834 30.671 28.9834 25.4101C28.9834 20.1493 33.2636 15.869 38.5244 15.869C43.7852 15.869 48.0655 20.1493 48.0655 25.4101C48.0655 30.671 43.7852 34.9513 38.5244 34.9513Z" fill="#FDCF30" stroke="#FDCF30"/>
</svg>
