<svg width="21" height="21" viewBox="0 0 21 21" fill="none" xmlns="http://www.w3.org/2000/svg">
<path d="M10.5 0C6.64028 0 3.5 3.14028 3.5 7.00001C3.5 8.15871 3.78969 9.30755 4.34041 10.3265L10.1172 20.7744C10.1941 20.9137 10.3407 21 10.5 21C10.6594 21 10.8059 20.9137 10.8828 20.7744L16.6618 10.3231C17.2103 9.30755 17.5 8.15866 17.5 6.99997C17.5 3.14028 14.3597 0 10.5 0ZM15.894 9.90314L10.5 19.6585L5.10818 9.907C4.62838 9.01917 4.37503 8.01388 4.37503 7.00001C4.37503 3.62262 7.12266 0.875027 10.5 0.875027C13.8774 0.875027 16.625 3.62266 16.625 7.00001C16.625 8.01384 16.3716 9.01917 15.894 9.90314Z" fill="#606060"/>
<path d="M10.5 3.5C8.57012 3.5 7 5.07012 7 6.99999C7 8.92989 8.57012 10.5 10.5 10.5C12.4299 10.5 14 8.92989 14 7.00003C14 5.07016 12.4299 3.5 10.5 3.5ZM10.5 9.62503C9.05246 9.62503 7.87499 8.44755 7.87499 7.00003C7.87499 5.5525 9.05246 4.37503 10.5 4.37503C11.9475 4.37503 13.125 5.5525 13.125 7.00003C13.125 8.44751 11.9475 9.62503 10.5 9.62503Z" fill="#606060"/>
</svg>
