<svg width="51" height="56" viewBox="0 0 51 56" fill="none" xmlns="http://www.w3.org/2000/svg">
<circle cx="22.0221" cy="22.0221" r="22.0221" fill="#C4C4C4" fill-opacity="0.28"/>
<path d="M47.6995 25.831C47.6995 26.6041 48.3267 27.2313 49.0998 27.2313C49.8729 27.2313 50.5001 26.6041 50.5001 25.831V18.6288C50.5001 15.8696 48.2559 13.6274 45.4987 13.6274H38.2965C37.5234 13.6274 36.8962 14.2546 36.8962 15.0277C36.8962 15.8008 37.5234 16.428 38.2965 16.428H45.4987C46.7116 16.428 47.6995 17.4159 47.6995 18.6288V25.831Z" fill="#FDCF30" stroke="#FDCF30"/>
<path d="M38.1581 54.5164H45.3603C48.1174 54.5164 50.3616 52.2743 50.3616 49.5151V42.3129C50.3616 41.5398 49.7344 40.9126 48.9614 40.9126C48.1883 40.9126 47.5611 41.5398 47.5611 42.3129V49.5151C47.5611 50.728 46.5732 51.7159 45.3603 51.7159H38.1581C37.385 51.7159 36.7578 52.3431 36.7578 53.1161C36.7578 53.8892 37.385 54.5164 38.1581 54.5164Z" fill="#FDCF30" stroke="#FDCF30"/>
<path d="M11.1491 54.5164H18.3513C19.1243 54.5164 19.7515 53.8892 19.7515 53.1161C19.7515 52.3431 19.1243 51.7159 18.3513 51.7159H11.1491C9.93616 51.7159 8.94825 50.728 8.94825 49.5151V42.3129C8.94825 41.5398 8.32107 40.9126 7.54798 40.9126C6.77488 40.9126 6.14771 41.5398 6.14771 42.3129V49.5151C6.14771 52.2743 8.39191 54.5164 11.1491 54.5164Z" fill="#FDCF30" stroke="#FDCF30"/>
<path d="M6.14771 25.831C6.14771 26.6041 6.77488 27.2313 7.54798 27.2313C8.32107 27.2313 8.94825 26.6041 8.94825 25.831V18.6288C8.94825 17.4159 9.93616 16.428 11.1491 16.428H18.3513C19.1243 16.428 19.7515 15.8008 19.7515 15.0277C19.7515 14.2546 19.1243 13.6274 18.3513 13.6274H11.1491C8.39191 13.6274 6.14771 15.8696 6.14771 18.6288V25.831Z" fill="#FDCF30" stroke="#FDCF30"/>
<path d="M18.3524 45.5135H38.1584C39.9236 45.5135 41.3593 44.0779 41.3593 42.3127V36.911C41.3593 36.1379 40.7321 35.5107 39.959 35.5107C39.1859 35.5107 38.5587 36.1379 38.5587 36.911V42.3127C38.5587 42.5323 38.3786 42.7129 38.1584 42.7129H18.3524C18.1323 42.7129 17.9522 42.5323 17.9522 42.3127V36.911C17.9522 36.1379 17.325 35.5107 16.5519 35.5107C15.7788 35.5107 15.1516 36.1379 15.1516 36.911V42.3127C15.1516 44.0779 16.5872 45.5135 18.3524 45.5135Z" fill="#FDCF30" stroke="#FDCF30"/>
<path d="M38.6966 24.8615C38.6966 25.6346 39.3238 26.2618 40.0969 26.2618C40.87 26.2618 41.4972 25.6346 41.4972 24.8615V17.6593C41.4972 15.8941 40.0616 14.4585 38.2964 14.4585H18.4904C16.7252 14.4585 15.2896 15.8941 15.2896 17.6593V24.8615C15.2896 25.6346 15.9167 26.2618 16.6898 26.2618C17.4629 26.2618 18.0901 25.6346 18.0901 24.8615V17.6593C18.0901 17.4397 18.2702 17.259 18.4904 17.259H38.2964C38.5165 17.259 38.6966 17.4397 38.6966 17.6593V24.8615Z" fill="#FDCF30" stroke="#FDCF30"/>
<path d="M12.9503 38.3113H43.5596C44.3327 38.3113 44.9599 37.6841 44.9599 36.911C44.9599 36.1379 44.3327 35.5107 43.5596 35.5107H12.9503C12.1772 35.5107 11.55 36.1379 11.55 36.911C11.55 37.6841 12.1772 38.3113 12.9503 38.3113Z" fill="#FDCF30" stroke="#FDCF30"/>
</svg>
