<svg width="47" height="47" viewBox="0 0 47 47" fill="none" xmlns="http://www.w3.org/2000/svg">
<path d="M47 23.5C47 10.5425 36.4575 0 23.5 0C10.5425 0 0 10.5425 0 23.5C0 30.3441 2.94305 36.513 7.62767 40.8114L7.60545 40.831L8.36771 41.4737C8.41727 41.5155 8.47111 41.5497 8.52067 41.5907C8.92573 41.9266 9.34531 42.2453 9.77258 42.5538C9.91102 42.6538 10.0495 42.7538 10.1905 42.8512C10.6468 43.1657 11.1151 43.4639 11.5936 43.7467C11.6979 43.8083 11.803 43.8681 11.9081 43.9279C12.4319 44.2261 12.9669 44.5073 13.5146 44.7654C13.5548 44.7842 13.5958 44.8013 13.636 44.8201C15.4211 45.6498 17.3268 46.2591 19.3196 46.6189C19.3717 46.6283 19.4238 46.6377 19.4768 46.6471C20.0955 46.7539 20.721 46.8393 21.3542 46.8966C21.4311 46.9034 21.5081 46.9077 21.5858 46.9145C22.2165 46.9667 22.854 47 23.5 47C24.1401 47 24.7716 46.9667 25.3988 46.9163C25.4783 46.9094 25.5577 46.9051 25.6372 46.8983C26.2653 46.8411 26.8857 46.7582 27.4984 46.6531C27.5514 46.6437 27.6052 46.6343 27.6582 46.624C29.6211 46.2719 31.4994 45.6763 33.2615 44.8679C33.3264 44.838 33.3922 44.8098 33.4572 44.779C33.9844 44.5312 34.4997 44.2637 35.0047 43.9792C35.1304 43.9083 35.2551 43.8365 35.3799 43.763C35.8396 43.4921 36.2917 43.2092 36.7309 42.9084C36.889 42.8008 37.0437 42.6871 37.2001 42.5743C37.5752 42.3043 37.9435 42.0257 38.3016 41.7343C38.3811 41.6702 38.4665 41.6147 38.5443 41.5489L39.3262 40.896L39.3031 40.8763C44.0287 36.5763 47 30.3791 47 23.5ZM1.70909 23.5C1.70909 11.4842 11.4842 1.70909 23.5 1.70909C35.5158 1.70909 45.2909 11.4842 45.2909 23.5C45.2909 29.9749 42.4495 35.7961 37.9512 39.7902C37.7 39.6167 37.447 39.4612 37.1881 39.3313L29.9527 35.714C29.3032 35.3893 28.8999 34.7364 28.8999 34.0109V31.484C29.0674 31.2772 29.2443 31.0431 29.4271 30.7859C30.3637 29.463 31.1149 27.9915 31.6626 26.408C32.7453 25.8936 33.4443 24.8151 33.4443 23.5974V20.5681C33.4443 19.8272 33.1726 19.1085 32.6864 18.5436V14.5555C32.7308 14.112 32.888 11.609 31.0773 9.54442C29.5023 7.74645 26.9532 6.83636 23.5 6.83636C20.0468 6.83636 17.4977 7.74646 15.9227 9.54356C14.112 11.6081 14.2692 14.1111 14.3136 14.5546V18.5428C13.8283 19.1076 13.5557 19.8263 13.5557 20.5672V23.5966C13.5557 24.5374 13.9778 25.415 14.7007 26.0072C15.3929 28.7187 16.8175 30.7713 17.3439 31.4669V33.94C17.3439 34.6373 16.9636 35.2782 16.3509 35.6132L9.59398 39.2988C9.37864 39.4159 9.165 39.5526 8.95136 39.7056C4.50858 35.7132 1.70909 29.9279 1.70909 23.5ZM36.2831 41.131C35.9841 41.348 35.6798 41.5583 35.3713 41.7591C35.2295 41.8514 35.0885 41.9437 34.9441 42.0334C34.5407 42.2829 34.1305 42.5205 33.7118 42.7427C33.6195 42.7914 33.5264 42.8375 33.4332 42.8854C32.471 43.3784 31.4755 43.8023 30.4526 44.1467C30.4167 44.1586 30.3808 44.1715 30.3441 44.1834C29.8083 44.3612 29.2656 44.5193 28.717 44.6551C28.7153 44.6551 28.7136 44.656 28.7119 44.656C28.1581 44.7927 27.5975 44.9064 27.0335 44.9995C27.0182 45.0021 27.0028 45.0055 26.9874 45.0081C26.4567 45.0944 25.9218 45.1567 25.3851 45.2037C25.2903 45.2123 25.1954 45.2183 25.0997 45.2251C24.569 45.2653 24.0358 45.2909 23.5 45.2909C22.9582 45.2909 22.4181 45.2644 21.8806 45.2243C21.7875 45.2174 21.6943 45.2114 21.6021 45.2029C21.0603 45.155 20.5211 45.0909 19.987 45.0038C19.963 44.9995 19.9391 44.9952 19.9152 44.991C18.7855 44.8021 17.6737 44.5244 16.591 44.1612C16.5577 44.1501 16.5235 44.1381 16.4902 44.127C15.9527 43.9441 15.4211 43.7416 14.899 43.5177C14.8956 43.516 14.8913 43.5143 14.8879 43.5126C14.394 43.2998 13.9094 43.064 13.4309 42.8153C13.3685 42.7828 13.3053 42.7521 13.2437 42.7187C12.8071 42.4854 12.3798 42.2333 11.9585 41.9701C11.8337 41.8915 11.7098 41.8121 11.5868 41.7317C11.1988 41.4779 10.816 41.2139 10.4434 40.9344C10.4049 40.9054 10.3682 40.8746 10.3297 40.8456C10.3571 40.8302 10.3844 40.8148 10.4118 40.7994L17.1687 37.1138C18.3309 36.4797 19.0529 35.2637 19.0529 33.94L19.0521 30.8619L18.8555 30.6243C18.8367 30.603 16.9892 28.3555 16.2911 25.3125L16.2133 24.9741L15.9219 24.7852C15.5109 24.5195 15.2647 24.0751 15.2647 23.5957V20.5663C15.2647 20.169 15.4331 19.799 15.7407 19.5212L16.0227 19.2666V14.5068L16.015 14.3948C16.0125 14.3743 15.7604 12.3191 17.208 10.669C18.4437 9.26071 20.5612 8.54545 23.5 8.54545C26.4277 8.54545 28.5384 9.25473 29.7775 10.6528C31.2234 12.2858 30.9867 14.3794 30.985 14.3965L30.9773 19.2683L31.2593 19.5229C31.5661 19.7998 31.7353 20.1707 31.7353 20.5681V23.5974C31.7353 24.2067 31.3208 24.7596 30.726 24.9433L30.3013 25.0741L30.1646 25.4971C29.6604 27.0635 28.9426 28.5102 28.0317 29.7971C27.8078 30.1133 27.5899 30.3936 27.4027 30.6081L27.1908 30.8499V34.0109C27.1908 35.3884 27.9565 36.6275 29.1887 37.2428L36.4241 40.8601C36.4703 40.8832 36.5156 40.9071 36.5609 40.931C36.4694 41.0002 36.3754 41.0643 36.2831 41.131Z" fill="#606060"/>
</svg>
